<!--?xml version="1.0" encoding="utf-8"?-->
<!-- Generator: Adobe Illustrator 18.1.1, SVG Export Plug-In . SVG Version: 6.00 Build 0)  -->

<svg version="1.1" id="_x32_" xmlns="http://www.w3.org/2000/svg" xmlns:xlink="http://www.w3.org/1999/xlink" x="0px" y="0px" viewBox="0 0 512 512" style="width: 256px; height: 256px; opacity: 1;" xml:space="preserve">
<style type="text/css">
	.st0{fill:#4B4B4B;}
</style>
<g>
	<rect x="169.996" y="200.363" class="st0" width="171.975" height="21.528" style="fill: rgb(210, 58, 200);"></rect>
	<rect x="169.996" y="240.622" class="st0" width="105.831" height="21.528" style="fill: rgb(210, 58, 200);"></rect>
	<path class="st0" d="M10.339,223.56l-0.008,0.076c0.008-0.017,0.008-0.026,0.008-0.042c0-0.017,0-0.034,0.009-0.051L10.339,223.56z
		" style="fill: rgb(210, 58, 200);"></path>
	<path class="st0" d="M501.644,223.551v0.016c0.016,0.017,0.016,0.042,0.016,0.068L501.644,223.551z" style="fill: rgb(210, 58, 200);"></path>
	<path class="st0" d="M25.22,467.678l-0.059-0.101c-0.008-0.009-0.017-0.025-0.026-0.034L25.22,467.678z" style="fill: rgb(210, 58, 200);"></path>
	<path class="st0" d="M501.644,223.568c-1.213-6.858-3.219-13.413-5.746-19.632l-0.017-0.068l0.017,0.034
		c-4.5-10.97-10.971-20.997-19.026-29.752l-0.186-0.194l-0.455-0.446l-0.084-0.101l-54.55-52.452l-1.045-0.961L328.354,31.32
		l-0.438-0.438L327.9,30.89C309.177,11.224,283.216,0,255.958,0c-27.216,0.009-53.278,11.224-71.959,30.966v-0.009l-0.404,0.405
		l-92.164,88.633l-0.927,0.852l-0.11,0.101l-54.55,52.468l-0.345,0.354l-0.194,0.185l-0.177,0.194
		c-8.072,8.755-14.543,18.79-19.026,29.752l-0.017,0.035c-2.528,6.226-4.533,12.79-5.746,19.658
		c-1.078,5.881-1.669,11.922-1.669,18.082V412.69c-0.008,20.197,6.068,39.105,16.464,54.845l0.026,0.042
		c3.699,5.587,7.954,10.726,12.647,15.428l0.016,0.009C55.654,500.86,80.46,512.008,107.896,512h296.209
		c27.351,0.008,52.141-11.148,70.037-28.961l0.016-0.025c4.77-4.77,8.95-9.926,12.581-15.428l-0.026,0.051l0.034-0.06
		c10.516-15.757,16.583-34.69,16.583-54.887V241.676C503.33,235.482,502.723,229.441,501.644,223.568z M415.311,172.338
		l31.228,30.022c5.005,5.452,8.83,11.637,11.425,18.402l-42.653,24.781V172.338z M213.592,59.91
		c10.845-11.754,26.281-18.496,42.366-18.496c16.044,0,31.513,6.749,42.45,18.503l69.599,66.937H144.06L213.592,59.91z
		 M119.086,150.835l1.635-1.55h270.61l1.55,1.508v107.684L255.958,337.91l-136.872-79.357V150.835z M65.429,202.385l31.227-30.013
		v73.155l-42.653-24.773C56.531,213.988,60.364,207.812,65.429,202.385z M50.077,412.69V244.49l123.946,71.959L55.36,436.932
		C51.896,429.374,50.077,421.066,50.077,412.69z M404.104,470.586H107.896c-14.577,0-28.378-5.427-39.122-15.327l125.321-127.25
		l61.864,35.904l61.931-35.904l125.329,127.259C432.466,465.159,418.682,470.586,404.104,470.586z M461.907,412.69
		c0,8.603-1.786,16.785-5.342,24.352l-118.69-120.594l124.031-71.959V412.69z" style="fill: rgb(210, 58, 200);"></path>
</g>
</svg>
